<svg xmlns="http://www.w3.org/2000/svg" xmlns:xlink="http://www.w3.org/1999/xlink" width="500" zoomAndPan="magnify" viewBox="0 0 375 374.999991" height="500" preserveAspectRatio="xMidYMid meet" version="1.0"><defs><clipPath id="e0fb59ab8b"><path d="M 24.570312 53.617188 L 350.070312 53.617188 L 350.070312 275.617188 L 24.570312 275.617188 Z M 24.570312 53.617188 " clip-rule="nonzero"/></clipPath><clipPath id="834cd0c58e"><path d="M 24.570312 100.277344 L 350.070312 100.277344 L 350.070312 322.277344 L 24.570312 322.277344 Z M 24.570312 100.277344 " clip-rule="nonzero"/></clipPath><clipPath id="c96a554dd8"><path d="M 24.570312 252.574219 L 230.820312 252.574219 L 230.820312 375 L 24.570312 375 Z M 24.570312 252.574219 " clip-rule="nonzero"/></clipPath><clipPath id="d4fff77f2b"><path d="M 127.695312 252.574219 C 70.738281 252.574219 24.570312 298.746094 24.570312 355.699219 C 24.570312 412.652344 70.738281 458.824219 127.695312 458.824219 C 184.648438 458.824219 230.820312 412.652344 230.820312 355.699219 C 230.820312 298.746094 184.648438 252.574219 127.695312 252.574219 " clip-rule="nonzero"/></clipPath><clipPath id="69c658b9d7"><path d="M 168.75 275.792969 L 375 275.792969 L 375 375 L 168.75 375 Z M 168.75 275.792969 " clip-rule="nonzero"/></clipPath><clipPath id="29d6038540"><path d="M 271.875 275.792969 C 214.921875 275.792969 168.75 321.964844 168.75 378.917969 C 168.75 435.871094 214.921875 482.042969 271.875 482.042969 C 328.828125 482.042969 375 435.871094 375 378.917969 C 375 321.964844 328.828125 275.792969 271.875 275.792969 " clip-rule="nonzero"/></clipPath><clipPath id="1b2197d472"><path d="M 144.179688 252.574219 L 350.429688 252.574219 L 350.429688 375 L 144.179688 375 Z M 144.179688 252.574219 " clip-rule="nonzero"/></clipPath><clipPath id="8b1cf1a010"><path d="M 247.304688 252.574219 C 190.351562 252.574219 144.179688 298.746094 144.179688 355.699219 C 144.179688 412.652344 190.351562 458.824219 247.304688 458.824219 C 304.261719 458.824219 350.429688 412.652344 350.429688 355.699219 C 350.429688 298.746094 304.261719 252.574219 247.304688 252.574219 " clip-rule="nonzero"/></clipPath><clipPath id="f1ceaf47e4"><path d="M 51.5625 252.574219 L 323 252.574219 L 323 375 L 51.5625 375 Z M 51.5625 252.574219 " clip-rule="nonzero"/></clipPath><clipPath id="40095b4051"><path d="M 187.5 252.574219 C 112.421875 252.574219 51.5625 298.746094 51.5625 355.699219 C 51.5625 412.652344 112.421875 458.824219 187.5 458.824219 C 262.578125 458.824219 323.4375 412.652344 323.4375 355.699219 C 323.4375 298.746094 262.578125 252.574219 187.5 252.574219 " clip-rule="nonzero"/></clipPath></defs><g clip-path="url(#e0fb59ab8b)"><path fill="#56ace0" d="M 275.3125 246.253906 L 275.3125 137.335938 L 271.863281 136.164062 L 271.863281 245.40625 C 269.519531 244.820312 267.175781 244.300781 264.769531 243.78125 L 264.769531 133.691406 L 261.320312 132.519531 L 261.320312 243.0625 C 258.976562 242.542969 256.632812 242.085938 254.226562 241.632812 L 254.226562 130.046875 L 250.777344 128.875 L 250.777344 241.046875 C 247.78125 240.523438 244.789062 240.003906 241.792969 239.546875 L 241.792969 104.722656 L 216.28125 122.753906 L 216.28125 236.617188 C 212.636719 236.359375 208.925781 236.097656 205.21875 235.902344 L 205.21875 93.066406 L 201.769531 91.894531 L 201.769531 235.773438 C 199.425781 235.707031 197.082031 235.640625 194.671875 235.578125 L 194.671875 89.488281 L 191.222656 88.316406 L 191.222656 235.578125 C 189.859375 235.578125 188.492188 235.578125 187.125 235.578125 C 181.265625 235.578125 175.472656 235.707031 169.679688 235.96875 L 169.679688 53.617188 L 138.636719 77.183594 L 138.636719 134.992188 L 151.914062 140.851562 L 151.261719 237.203125 C 149.246094 237.398438 147.164062 237.59375 145.144531 237.855469 L 145.144531 161.492188 L 141.695312 160.125 L 141.695312 238.246094 C 139.351562 238.570312 136.945312 238.832031 134.601562 239.222656 L 134.601562 157.324219 L 131.152344 155.957031 L 131.152344 239.742188 C 128.808594 240.132812 126.402344 240.523438 124.058594 240.914062 L 124.058594 153.09375 L 120.609375 151.726562 L 120.609375 241.5 C 117.875 242.023438 115.140625 242.542969 112.472656 243.128906 L 112.472656 125.945312 L 85.527344 144.953125 L 85.527344 249.964844 C 63.789062 256.539062 43.160156 265.199219 24.609375 275.617188 C 72.578125 259.925781 128.09375 250.941406 187.320312 250.941406 C 246.546875 250.941406 302.0625 259.925781 350.027344 275.617188 C 327.769531 263.117188 302.582031 253.089844 275.3125 246.253906 Z M 275.3125 246.253906 " fill-opacity="1" fill-rule="nonzero"/></g><path fill="#56ace0" d="M 184.324219 85.839844 L 180.941406 84.667969 L 180.941406 235.511719 L 184.324219 235.511719 Z M 184.324219 85.839844 " fill-opacity="1" fill-rule="nonzero"/><g clip-path="url(#834cd0c58e)"><path fill="#ffc10d" d="M 275.3125 292.917969 L 275.3125 184 L 271.863281 182.828125 L 271.863281 292.070312 C 269.519531 291.484375 267.175781 290.964844 264.769531 290.445312 L 264.769531 180.355469 L 261.320312 179.183594 L 261.320312 289.726562 C 258.976562 289.207031 256.632812 288.75 254.226562 288.296875 L 254.226562 176.710938 L 250.777344 175.539062 L 250.777344 287.710938 C 247.78125 287.1875 244.789062 286.667969 241.792969 286.210938 L 241.792969 151.382812 L 216.28125 169.417969 L 216.28125 283.28125 C 212.636719 283.023438 208.925781 282.761719 205.21875 282.566406 L 205.21875 139.730469 L 201.769531 138.558594 L 201.769531 282.4375 C 199.425781 282.371094 197.082031 282.304688 194.671875 282.242188 L 194.671875 136.152344 L 191.222656 134.980469 L 191.222656 282.242188 C 189.859375 282.242188 188.492188 282.242188 187.125 282.242188 C 181.265625 282.242188 175.472656 282.371094 169.679688 282.632812 L 169.679688 100.277344 L 138.636719 123.847656 L 138.636719 181.65625 L 151.914062 187.515625 L 151.261719 283.867188 C 149.246094 284.0625 147.164062 284.257812 145.144531 284.519531 L 145.144531 208.152344 L 141.695312 206.785156 L 141.695312 284.910156 C 139.351562 285.234375 136.945312 285.496094 134.601562 285.886719 L 134.601562 203.988281 L 131.152344 202.621094 L 131.152344 286.40625 C 128.808594 286.796875 126.402344 287.1875 124.058594 287.578125 L 124.058594 199.757812 L 120.609375 198.390625 L 120.609375 288.164062 C 117.875 288.6875 115.140625 289.207031 112.472656 289.792969 L 112.472656 172.609375 L 85.527344 191.617188 L 85.527344 296.628906 C 63.789062 303.203125 43.160156 311.863281 24.609375 322.277344 C 72.578125 306.589844 128.09375 297.605469 187.320312 297.605469 C 246.546875 297.605469 302.0625 306.589844 350.027344 322.277344 C 327.769531 309.78125 302.582031 299.753906 275.3125 292.917969 Z M 275.3125 292.917969 " fill-opacity="1" fill-rule="nonzero"/></g><path fill="#ffc10d" d="M 184.324219 132.503906 L 180.941406 131.332031 L 180.941406 282.175781 L 184.324219 282.175781 Z M 184.324219 132.503906 " fill-opacity="1" fill-rule="nonzero"/><g clip-path="url(#c96a554dd8)"><g clip-path="url(#d4fff77f2b)"><path fill="#ffffff" d="M 24.570312 252.574219 L 230.820312 252.574219 L 230.820312 458.824219 L 24.570312 458.824219 Z M 24.570312 252.574219 " fill-opacity="1" fill-rule="nonzero"/></g></g><g clip-path="url(#69c658b9d7)"><g clip-path="url(#29d6038540)"><path fill="#ffffff" d="M 168.75 275.792969 L 375 275.792969 L 375 482.042969 L 168.75 482.042969 Z M 168.75 275.792969 " fill-opacity="1" fill-rule="nonzero"/></g></g><g clip-path="url(#1b2197d472)"><g clip-path="url(#8b1cf1a010)"><path fill="#ffffff" d="M 144.179688 252.574219 L 350.429688 252.574219 L 350.429688 458.824219 L 144.179688 458.824219 Z M 144.179688 252.574219 " fill-opacity="1" fill-rule="nonzero"/></g></g><g clip-path="url(#f1ceaf47e4)"><g clip-path="url(#40095b4051)"><path fill="#ffffff" d="M 51.5625 252.574219 L 322.265625 252.574219 L 322.265625 458.824219 L 51.5625 458.824219 Z M 51.5625 252.574219 " fill-opacity="1" fill-rule="nonzero"/></g></g></svg>