<?xml version="1.0" encoding="iso-8859-1"?>
<!-- Uploaded to: SVGRepo, www.svgrepo.com, Transformed by: SVGRepo Tools -->
<svg height="800px" width="800px" version="1.1" id="Layer_1" xmlns="http://www.w3.org/2000/svg" xmlns:xlink="http://www.w3.org/1999/xlink" 
	 viewBox="0 0 392.533 392.533" xml:space="preserve">
<path style="fill:#FFFFFF;" d="M74.117,339.459h-27.41v31.289h299.119v-41.826c0-51.911-40.469-94.642-91.669-98.133l-48.162,99.685
	c-3.491,6.982-14.287,9.632-19.653,0l-48.162-99.685C107.087,232.857,80,249.535,63.45,273.972h43.442
	c6.012,0,10.925,4.849,10.925,10.925s-4.848,10.925-10.925,10.925H52.59c-2.457,6.982-4.267,14.222-5.107,21.786h26.764
	c6.012,0,10.925,4.848,10.925,10.925C85.107,334.481,80.129,339.459,74.117,339.459z"/>
<g>
	<path style="fill:#56ACE0;" d="M266.958,254.901l-45.446,94.061h102.594v-19.911C324.17,293.43,299.863,263.499,266.958,254.901z"
		/>
	<path style="fill:#56ACE0;" d="M91.96,273.972h8.986c6.012,0,10.925,4.849,10.925,10.925c0,6.012-4.848,10.925-10.925,10.925
		h-24.76c-3.232,6.788-5.56,14.158-6.723,21.786h4.719c6.012,0,10.925,4.848,10.925,10.925s-4.848,10.925-10.925,10.925h-5.624
		v9.503h102.594l-45.446-94.061C112.905,258.263,101.333,264.986,91.96,273.972z"/>
</g>
<path style="fill:#FFFFFF;" d="M240.129,38.335c-13.123-10.602-29.543-16.485-46.675-16.485
	c-29.608,1.164-52.752,14.287-67.362,42.99C176.388,65.552,217.826,51.071,240.129,38.335z"/>
<path style="fill:#FFC10D;" d="M267.863,96.194c0-14.739-4.461-29.156-12.735-41.438c-48.743,27.604-109.64,35.879-135.37,31.612
	c-0.453,3.297-0.776,6.594-0.776,9.826c0,41.051,33.358,74.408,74.408,74.408C234.44,170.667,267.863,137.309,267.863,96.194z"/>
<g>
	<path style="fill:#194F82;" d="M193.455,0c-34.327,0-96.259,26.053-96.259,96.194c0,53.075,43.184,96.259,96.259,96.259
		s96.259-43.184,96.259-96.259C289.713,55.531,258.036,0,193.455,0z M119.046,96.194c0-3.232,0.323-6.465,0.776-9.826
		c25.729,4.267,86.691-4.008,135.37-31.612c8.21,12.218,12.735,26.57,12.735,41.438c0,41.05-33.358,74.408-74.408,74.408
		C152.404,170.667,119.046,137.309,119.046,96.194z M193.455,21.786c17.067,0,33.552,5.883,46.675,16.485
		c-22.238,12.8-63.741,27.216-114.036,26.57C140.638,36.137,163.846,23.014,193.455,21.786z"/>
	<path style="fill:#194F82;" d="M247.499,208.808c-4.202,0-8.016,2.392-9.826,6.206l-41.374,85.721l-41.438-85.786
		c-1.875-3.814-5.624-6.206-9.826-6.206c-66.198,0-120.178,53.915-120.178,120.178v52.687c0,6.012,4.848,10.925,10.925,10.925
		h320.97c6.012,0,10.925-4.848,10.925-10.925v-52.687C367.677,262.723,313.762,208.808,247.499,208.808z M345.891,370.747H46.707
		v-31.289h27.41c6.012,0,10.925-4.848,10.925-10.925c0-6.012-4.848-10.925-10.925-10.925H47.483
		c0.84-7.564,2.651-14.869,5.107-21.786h54.497c6.012,0,10.925-4.848,10.925-10.925c0-6.012-4.848-10.925-10.925-10.925H63.644
		c16.549-24.436,43.572-41.051,74.731-43.184l48.162,99.685c5.301,9.632,16.162,6.982,19.653,0l48.162-99.685
		c51.071,3.491,91.669,46.158,91.669,98.133v41.826H345.891z"/>
</g>
<g>
</g>
<g>
</g>
<g>
</g>
<g>
</g>
<g>
</g>
<g>
</g>
<g>
</g>
<g>
</g>
<g>
</g>
<g>
</g>
<g>
</g>
<g>
</g>
<g>
</g>
<g>
</g>
<g>
</g>
</svg>
