<?xml version="1.0" encoding="utf-8"?>

<!-- Uploaded to: SVG Repo, www.svgrepo.com, Generator: SVG Repo Mixer Tools -->
<svg version="1.1" id="Icons" xmlns="http://www.w3.org/2000/svg" xmlns:xlink="http://www.w3.org/1999/xlink" 
	 viewBox="0 0 32 32" xml:space="preserve">
<style type="text/css">
	.st0{fill:none;stroke:#000000;stroke-width:2;stroke-linecap:round;stroke-linejoin:round;stroke-miterlimit:10;}
</style>
<g>
	<path d="M20,24h-8c-0.6,0-1,0.4-1,1s0.4,1,1,1c0,2.2,1.8,4,4,4s4-1.8,4-4c0.6,0,1-0.4,1-1S20.6,24,20,24z"/>
	<path d="M4,12H2c-0.6,0-1,0.4-1,1s0.4,1,1,1h2c0.6,0,1-0.4,1-1S4.6,12,4,12z"/>
	<path d="M6.8,20.8l-1.4,1.4c-0.4,0.4-0.4,1,0,1.4c0.2,0.2,0.5,0.3,0.7,0.3s0.5-0.1,0.7-0.3l1.4-1.4c0.4-0.4,0.4-1,0-1.4
		S7.2,20.4,6.8,20.8z"/>
	<path d="M25.2,20.8c-0.4-0.4-1-0.4-1.4,0s-0.4,1,0,1.4l1.4,1.4c0.2,0.2,0.5,0.3,0.7,0.3s0.5-0.1,0.7-0.3c0.4-0.4,0.4-1,0-1.4
		L25.2,20.8z"/>
	<path d="M30,12h-2c-0.6,0-1,0.4-1,1s0.4,1,1,1h2c0.6,0,1-0.4,1-1S30.6,12,30,12z"/>
	<path d="M25.2,2.4l-1.4,1.4c-0.4,0.4-0.4,1,0,1.4c0.2,0.2,0.5,0.3,0.7,0.3s0.5-0.1,0.7-0.3l1.4-1.4c0.4-0.4,0.4-1,0-1.4
		S25.6,2,25.2,2.4z"/>
	<path d="M6.8,5.2C7,5.4,7.3,5.5,7.5,5.5S8,5.4,8.2,5.2c0.4-0.4,0.4-1,0-1.4L6.8,2.4C6.4,2,5.8,2,5.4,2.4s-0.4,1,0,1.4L6.8,5.2z"/>
</g>
<path d="M22,5.3c-1.9-1.7-4.5-2.5-7-2.2C11,3.5,7.7,6.7,7.1,10.6c-0.4,2.8,0.4,5.6,2.4,7.7c1,1,1.5,2.4,1.5,3.8c0,0.6,0.4,1,1,1h8
	c0.6,0,1-0.4,1-1c0-1.4,0.5-2.8,1.5-3.7c1.6-1.7,2.5-3.9,2.5-6.3C25,9.4,23.9,7,22,5.3z M17,16.9L17,16.9c0,0.6-0.4,1.1-1,1.1
	s-1-0.4-1-1c-0.6,0-1-0.4-1-1s0.4-1,1-1h1.5c0.3,0,0.5-0.2,0.5-0.5S16.8,14,16.5,14h-1c-1.4,0-2.5-1.1-2.5-2.5c0-1.2,0.9-2.2,2-2.4
	V9c0-0.6,0.4-1,1-1s1,0.4,1,1c0.6,0,1,0.4,1,1s-0.4,1-1,1h-1.5c-0.3,0-0.5,0.2-0.5,0.5s0.2,0.5,0.5,0.5h1c1.4,0,2.5,1.1,2.5,2.5
	C19,15.7,18.1,16.7,17,16.9z"/>
</svg>